Coordinates
version=1
nRows=12
nColumns=32
inDegrees=yes

Units are S.I. units (second, meters, Newtons, ...)
If the header above contains a line with 'inDegrees', this indicates whether rotational values are in degrees (yes) or radians (no).

endheader
time	pelvis_tilt	pelvis_list	pelvis_rotation	pelvis_tx	pelvis_ty	pelvis_tz	hip_flexion_r	hip_adduction_r	hip_rotation_r	knee_angle_r	knee_adduction_r	med_cond_adduction_r	lat_cond_adduction_r	patella_r_constrained_knee_angle	ankle_angle_r	subtalar_angle_r	mtp_angle_r	hip_flexion_l	hip_adduction_l	hip_rotation_l	knee_angle_l	knee_adduction_l	med_cond_adduction_l	lat_cond_adduction_l	patella_l_constrained_knee_angle	ankle_angle_l	subtalar_angle_l	mtp_angle_l	lumbar_extension	lumbar_bending	lumbar_rotation
      0.00416667	     -2.09841037	     10.11086709	    -88.84170219	      0.52978096	      1.04943272	     -2.31824838	     31.89806726	      1.88778030	     38.26047774	     -4.42939265	      0.00000000	      0.00000000	     -0.00000000	     -0.07730749	    -13.09591726	    -19.91193780	      0.00000000	     -1.99899401	     -2.31826795	      1.00908735	     -8.62291080	     -0.00000000	      0.00000000	     -0.00000000	     -0.15049818	      4.92056201	      2.59650598	     -0.00000000	     -0.00000000	     -0.00000000	     -0.00000000
      0.00833333	     -1.49878876	     10.51726251	    -88.95905493	      0.52934586	      1.04692810	     -2.31204482	     32.68656714	      1.35306327	     38.71177278	     -4.10878614	     -0.00000000	     -0.00000000	      0.00000000	     -0.07171185	    -12.22376808	    -19.91501161	      0.00000000	     -1.92506204	     -1.71306653	      1.13243675	     -8.70748813	      0.00000000	     -0.00000000	     -0.00000000	     -0.15197434	      4.96414197	      2.51354106	     -0.00000000	      0.00000000	     -0.00000000	      0.00000000
      0.01250000	     -1.01173275	     10.85730323	    -89.03310254	      0.52892431	      1.04452914	     -2.30566795	     33.36473268	      0.92428736	     39.03026516	     -3.77445472	     -0.00000000	     -0.00000000	      0.00000000	     -0.06587666	    -11.32530245	    -19.91763208	      0.00000000	     -1.92146868	     -1.24292823	      1.19949695	     -8.78380365	     -0.00000000	      0.00000000	     -0.00000000	     -0.15330629	      5.08049333	      2.53256512	     -0.00000000	      0.00000000	     -0.00000000	      0.00000000
      0.01666667	     -0.62236372	     11.17556708	    -89.06080571	      0.52860266	      1.04226936	     -2.29919858	     33.99591050	      0.56604929	     39.25499471	     -3.44109506	      0.00000000	     -0.00000000	      0.00000000	     -0.06005844	    -10.49885759	    -19.91957596	     -0.00000000	     -1.96100740	     -0.88546326	      1.37694592	     -8.80285441	     -0.00000000	     -0.00000000	      0.00000000	     -0.15363879	      5.15665284	      2.58484443	      0.00000000	      0.00000000	     -0.00000000	      0.00000000
      0.02083333	     -0.29699719	     11.44209579	    -89.07544895	      0.52826746	      1.04009807	     -2.29265655	     34.52603255	      0.28739164	     39.39998301	     -3.09416078	     -0.00000000	      0.00000000	     -0.00000000	     -0.05400329	     -9.73580865	    -19.92166925	     -0.00000000	     -2.03182819	     -0.58942377	      1.52838371	     -8.88092277	     -0.00000000	     -0.00000000	     -0.00000000	     -0.15500134	      5.25024750	      2.63252985	      0.00000000	      0.00000000	     -0.00000000	      0.00000000
      0.02500000	     -0.15678372	     11.53705727	    -89.08053311	      0.52769446	      1.03827421	     -2.28562867	     34.81010419	      0.20201318	     39.47945925	     -2.75915971	     -0.00000000	      0.00000000	     -0.00000000	     -0.04815642	     -8.88417884	    -19.92331991	     -0.00000000	     -2.30080107	     -0.52918235	      1.47959869	     -8.97977001	      0.00000000	     -0.00000000	     -0.00000000	     -0.15672655	      5.35298086	      2.95458437	     -0.00000000	      0.00000000	     -0.00000000	      0.00000000
      0.02916667	     -0.05801642	     11.60746948	    -89.09146857	      0.52720444	      1.03652675	     -2.27856912	     35.02619892	      0.16874774	     39.54504686	     -2.44324736	     -0.00000000	     -0.00000000	      0.00000000	     -0.04264271	     -8.06052724	    -19.92435172	      0.00000000	     -2.59689308	     -0.50233429	      1.45257709	     -9.06896590	     -0.00000000	      0.00000000	     -0.00000000	     -0.15828331	      5.47506747	      3.23701710	      0.00000000	      0.00000000	     -0.00000000	      0.00000000
      0.03333333	     -0.09400317	     11.62138574	    -89.06539431	      0.52667543	      1.03503565	     -2.27132503	     35.13669546	      0.25811428	     39.57888734	     -2.14471531	     -0.00000000	      0.00000000	     -0.00000000	     -0.03743234	     -7.43520254	    -19.92528361	     -0.00000000	     -2.94694843	     -0.63913290	      1.41635706	     -9.20198878	      0.00000000	      0.00000000	     -0.00000000	     -0.16060500	      5.56351426	      3.70382471	     -0.00000000	      0.00000000	     -0.00000000	      0.00000000
      0.03750000	     -0.16358520	     11.56068809	    -89.06476375	      0.52621653	      1.03367209	     -2.26384229	     35.11395395	      0.42251986	     39.60248956	     -1.92253824	      0.00000000	     -0.00000000	      0.00000000	     -0.03355462	     -6.75659684	    -19.92623010	      0.00000000	     -3.38790510	     -0.79634054	      1.32026746	     -9.32107612	     -0.00000000	     -0.00000000	     -0.00000000	     -0.16268347	      5.60912400	      4.07291819	      0.00000000	      0.00000000	     -0.00000000	      0.00000000
      0.04166667	     -0.27753339	     11.38917760	    -89.07863892	      0.52582366	      1.03250756	     -2.25608189	     34.89827955	      0.68167897	     39.61962673	     -1.76500112	      0.00000000	     -0.00000000	      0.00000000	     -0.03080508	     -6.04007952	    -19.92720662	      0.00000000	     -3.96761117	     -0.99078317	      1.20579127	     -9.40548730	     -0.00000000	      0.00000000	     -0.00000000	     -0.16415672	      5.58070607	      4.44605575	      0.00000000	      0.00000000	     -0.00000000	      0.00000000
      0.04583333	     -0.49860658	     11.17773960	    -89.04557114	      0.52552689	      1.03156990	     -2.24824453	     34.62065605	      1.01952251	     39.62998523	     -1.71080229	      0.00000000	      0.00000000	     -0.00000000	     -0.02985913	     -5.52260232	    -19.92765975	      0.00000000	     -4.57916490	     -1.29954795	      1.12827644	     -9.51344003	      0.00000000	     -0.00000000	      0.00000000	     -0.16604085	      5.55089694	      4.81397410	      0.00000000	      0.00000000	      0.00000000	      0.00000000
      0.05000000	     -0.78108421	     10.94859231	    -89.00674633	      0.52525977	      1.03071588	     -2.24028827	     34.28724413	      1.42087959	     39.64585930	     -1.70201027	      0.00000000	     -0.00000000	      0.00000000	     -0.02970568	     -5.19886622	    -19.92786159	      0.00000000	     -5.21418232	     -1.66739373	      1.07052661	     -9.61028536	      0.00000000	     -0.00000000	      0.00000000	     -0.16773112	      5.46130100	      5.16854273	     -0.00000000	      0.00000000	      0.00000000	      0.00000000
